<svg xmlns="http://www.w3.org/2000/svg" width="79.156" height="79.156" viewBox="0 0 79.156 79.156">
  <defs>
    <style>
      .cls-1 {
        fill: #fff;
        fill-rule: evenodd;
      }
    </style>
  </defs>
  <path id="Calendar" class="cls-1" d="M893.24,571.545l-37.786-37.786a1.782,1.782,0,0,1,0-2.519l37.786-37.786a1.782,1.782,0,0,1,2.52,0l1.259,1.26h0l2.519,2.518h0l5.038,5.039h0l2.519,2.519h0l13.855,13.855h0l2.519,2.519h0l5.038,5.038h0l2.519,2.519h0l2.519,2.519a1.781,1.781,0,0,1,0,2.519l-37.786,37.786A1.78,1.78,0,0,1,893.24,571.545ZM929.767,532.5L894.5,497.232l-5.038,5.039,35.267,35.267Zm-10.076,10.077,1.259-1.26,1.26-1.259L886.943,504.79l-1.26,1.259-1.259,1.26-2.519,2.519h0L859.233,532.5,894.5,567.766,917.172,545.1h0ZM894.5,545.1l5.038,5.038-5.038,5.038-5.038-5.038Zm10.076-10.076,5.038,5.038-5.038,5.038-5.038-5.038Zm-18.893,1.259,5.038,5.038-5.038,5.038-5.038-5.038ZM895.759,526.2l5.039,5.038-5.039,5.038-5.038-5.038Zm-18.893,1.259,5.039,5.038-5.039,5.039-5.038-5.039Zm10.077-10.076,5.038,5.038-5.038,5.038-5.038-5.038Z" transform="translate(-854.938 -492.938)"/>
</svg>
