<svg xmlns="http://www.w3.org/2000/svg" width="26.65" height="26.907" viewBox="0 0 26.65 26.907">
  <defs>
    <style>
      .cls-1 {
        fill: #fff;
        fill-rule: evenodd;
      }
    </style>
  </defs>
  <path id="Camera" class="cls-1" d="M1031.54,199.015l-14.17-14.175a0.659,0.659,0,0,1-.01-0.936l11.14-11.137a0.655,0.655,0,0,1,.93.008l0.47,0.473,0.93-.928,1.89,1.89-0.93.928,1.89,1.89,2.32-2.32a0.666,0.666,0,0,1,.94.008l4.73,4.725a0.66,0.66,0,0,1,0,.937l-2.32,2.32,4.26,4.252a0.66,0.66,0,0,1,0,.937l-11.13,11.137A0.667,0.667,0,0,1,1031.54,199.015Zm8.73-19.118-3.78-3.78-1.86,1.856,3.78,3.78Zm1.94,7.509-4.26-4.253-4.72-4.725-4.25-4.252-10.21,10.209,13.23,13.23Zm-8.94-4.3a3.939,3.939,0,1,1-5.62-.051A3.968,3.968,0,0,1,1033.27,183.111Zm-4.64,4.641a2.625,2.625,0,1,0-.03-3.747A2.654,2.654,0,0,0,1028.63,187.752Z" transform="translate(-1017.16 -172.312)"/>
</svg>
