<svg xmlns="http://www.w3.org/2000/svg" width="53.031" height="53.031" viewBox="0 0 53.031 53.031">
  <defs>
    <style>
      .cls-1 {
        fill: #fff;
        fill-rule: evenodd;
      }
    </style>
  </defs>
  <path id="Envelope" class="cls-1" d="M980.383,416.628l-27.028-27.042a1.273,1.273,0,0,1,0-1.8l22.426-22.436a1.232,1.232,0,0,1,.213-0.214l0.785-.786a1.275,1.275,0,0,1,1.8,0l27.029,27.041a1.271,1.271,0,0,1,0,1.8l-23.425,23.436A1.273,1.273,0,0,1,980.383,416.628Zm-24.326-27.943,25.227,25.238,20.346-20.351-23.946-.023a3.161,3.161,0,0,1-2.162-2.163L975.5,369.233Zm21.991,2.337,23.612,0.023L978.025,367.4Z" transform="translate(-952.969 -363.969)"/>
</svg>
