<svg xmlns="http://www.w3.org/2000/svg" width="20" height="17" viewBox="0 0 20 17">
  <defs>
    <style>
      .cls-1 {
        fill: #fff;
        fill-rule: evenodd;
      }
    </style>
  </defs>
  <path id="Heart" class="cls-1" d="M741.38,2140.58a1.965,1.965,0,0,1-.418.64,4.989,4.989,0,0,1-.533.6C738.041,2144.43,732,2150,732,2150s-6.041-5.57-8.429-8.18a4.989,4.989,0,0,1-.533-0.6,1.947,1.947,0,0,1-.418-0.64,5.032,5.032,0,0,1-.62-2.42,5.237,5.237,0,0,1,5.312-5.16,5.342,5.342,0,0,1,4.688,2.73,5.341,5.341,0,0,1,4.687-2.73,5.238,5.238,0,0,1,5.313,5.16A5.032,5.032,0,0,1,741.38,2140.58Zm-4.693-6.37a4.762,4.762,0,0,0-.538.04,0.63,0.63,0,0,1-.134.02,3.736,3.736,0,0,0-.473.11,0.06,0.06,0,0,0-.04.01,4.074,4.074,0,0,0-.493.18c-0.031.01-.06,0.03-0.09,0.04a3.388,3.388,0,0,0-.417.23l0-.02s-0.179.13-.438,0.34c-0.011.01-.024,0.01-0.035,0.02a0.039,0.039,0,0,1-.021.02,10.984,10.984,0,0,0-2.006,2.05,11.015,11.015,0,0,0-2.006-2.05,0.039,0.039,0,0,1-.021-0.02c-0.011-.01-0.024-0.01-0.035-0.02-0.259-.21-0.438-0.34-0.438-0.34l0,0.02a3.388,3.388,0,0,0-.417-0.23c-0.03-.01-0.059-0.03-0.09-0.04a4.074,4.074,0,0,0-.493-0.18,0.06,0.06,0,0,0-.04-0.01,3.736,3.736,0,0,0-.473-0.11,0.63,0.63,0,0,1-.134-0.02,4.762,4.762,0,0,0-.539-0.04,3.935,3.935,0,0,0-4.033,4.41c0.006,0.04.014,0.09,0.021,0.13,0.017,0.11.037,0.21,0.062,0.32,0.011,0.04.023,0.09,0.036,0.13,0.03,0.11.065,0.21,0.1,0.32,0.013,0.03.026,0.07,0.04,0.1a3.845,3.845,0,0,0,.187.4h0c0.052,0.09.115,0.18,0.173,0.27,0,0-.006.01-0.007,0.01-0.265.3,7.706,7.81,8.105,8.09,0.4-.28,8.37-7.79,8.105-8.09a0.07,0.07,0,0,0-.008-0.01c0.059-.09.122-0.18,0.174-0.27h0a3.845,3.845,0,0,0,.187-0.4c0.014-.03.027-0.07,0.04-0.1,0.039-.11.074-0.21,0.1-0.32,0.012-.04.025-0.09,0.036-0.13,0.025-.11.045-0.21,0.062-0.32,0.007-.04.015-0.09,0.02-0.13a3.808,3.808,0,0,0,.03-0.46A4.009,4.009,0,0,0,736.687,2134.21Z" transform="translate(-722 -2133)"/>
</svg>
