<svg xmlns="http://www.w3.org/2000/svg" width="30.031" height="29.156" viewBox="0 0 30.031 29.156">
  <defs>
    <style>
      .cls-1 {
        fill: #fff;
        fill-rule: evenodd;
      }
    </style>
  </defs>
  <path id="Heart" class="cls-1" d="M913.238,304.179a3.253,3.253,0,0,1-.054,1.245,8.448,8.448,0,0,1-.239,1.294c-1.157,5.634-4.945,18.406-4.945,18.406s-12.954-3.106-18.413-4.92a8.57,8.57,0,0,1-1.239-.44,3.251,3.251,0,0,1-1.106-.576,8.5,8.5,0,0,1,9.009-14.414A8.5,8.5,0,0,1,913.238,304.179ZM901.5,298.858a6.628,6.628,0,0,0-.714.485c-0.058.045-.114,0.09-0.17,0.136a6.48,6.48,0,0,0-.57.526c-0.015.016-.032,0.03-0.047,0.046a6.392,6.392,0,0,0-.532.657c-0.031.043-.06,0.087-0.089,0.131a6.528,6.528,0,0,0-.392.656l-0.017-.021s-0.141.326-.331,0.829c-0.008.022-.019,0.042-0.027,0.065s-0.009.029-.014,0.043a17.794,17.794,0,0,0-1.092,4.526,17.806,17.806,0,0,0-4.466-1.317l-0.045-.01c-0.023,0-.046,0-0.069-0.008-0.53-.088-0.884-0.129-0.884-0.129l0.011,0.026a6.741,6.741,0,0,0-.765.011l-0.158.011a6.651,6.651,0,0,0-.835.133l-0.063.018a6.46,6.46,0,0,0-.741.23l-0.2.079a6.479,6.479,0,0,0-2.74,9.885c0.045,0.059.092,0.114,0.138,0.172,0.112,0.14.227,0.275,0.348,0.4q0.08,0.084.162,0.165c0.129,0.127.263,0.249,0.4,0.364,0.047,0.04.094,0.081,0.143,0.12a6.578,6.578,0,0,0,.585.414h0c0.149,0.092.307,0.166,0.462,0.246,0,0,0,.017,0,0.021-0.123.634,17.108,4.971,17.9,5.061,0.317-.729,5.177-17.819,4.566-18.03l-0.02-.008c0.008-.175.024-0.348,0.018-0.523h0a6.6,6.6,0,0,0-.066-0.714c-0.009-.062-0.021-0.122-0.032-0.184-0.031-.178-0.068-0.354-0.115-0.53-0.019-.075-0.039-0.149-0.062-0.222-0.05-.17-0.11-0.337-0.175-0.5-0.027-.068-0.051-0.137-0.081-0.2A6.47,6.47,0,0,0,901.5,298.858Z" transform="translate(-883.25 -295.969)"/>
</svg>
