<svg xmlns="http://www.w3.org/2000/svg" width="24.093" height="23.563" viewBox="0 0 24.093 23.563">
  <defs>
    <style>
      .cls-1 {
        fill: #fff;
        fill-rule: evenodd;
      }
    </style>
  </defs>
  <path id="Inbox" class="cls-1" d="M976.862,217.1l5.188,19.363a0.662,0.662,0,0,1-.461.815l-6.339,1.7-2.536.679-0.633.17h0l-1.176.315a0.551,0.551,0,0,1-.383.025l-9.685-2.956a0.673,0.673,0,0,1-.432-0.481l-0.023,0-0.173-.645-0.173-.645-1.729-6.454-0.173-.646-0.173-.645,0.023-.007a0.67,0.67,0,0,1,.133-0.632l6.843-7.332a0.634,0.634,0,0,1,.162-0.138,0.558,0.558,0,0,1,.239-0.1l1.185-.318,0.634-.17,8.875-2.378A0.664,0.664,0,0,1,976.862,217.1Zm-9.336,3.193-0.634.17-1.1.294-6.478,6.94,0.082,0.307,2.076,7.746,0.082,0.307,9.08,2.772,0.462-.124,0.634-.17,0.634-.17,2.535-.679,5.705-1.529-4.842-18.072Zm-3.514,14.777-0.032-.119-0.007,0,0-.014-2-7.475-0.009-.01,0,0-0.032-.12,0.2-.052,3.549-3.722,0.955,1-0.167.175,0.192-.052,0.346,1.291,1.268-.339,0.634-.17,0.634-.17,1.729,6.454,0.173,0.646,0.173,0.645-2.536.68,0.346,1.291-0.191.051,0.231,0.068-0.327,1.344-4.934-1.448Zm3.974-.384-0.516-1.926,1.267-.339,1.268-.34-1.383-5.163-1.268.339-0.634.17-0.634.17-0.516-1.926-2.121,2.225,1.587,5.924Z" transform="translate(-957.969 -216.625)"/>
</svg>
