<svg xmlns="http://www.w3.org/2000/svg" width="60.531" height="58.469" viewBox="0 0 60.531 58.469">
  <defs>
    <style>
      .cls-1 {
        fill: #fff;
        fill-rule: evenodd;
      }
    </style>
  </defs>
  <path id="Location" class="cls-1" d="M923.953,439.63l-1.378.8h0L903.25,451.583,883.927,462.74h0l-1.378.8a1.594,1.594,0,0,1-2.178-.583l-15.937-27.6a1.594,1.594,0,0,1,.583-2.177l6.9-3.984a15.88,15.88,0,0,1,5.391-21.485c0.15-.093.289-0.2,0.443-0.286s0.314-.157.469-0.24a15.879,15.879,0,0,1,21.3,6.073l6.9-3.984a1.594,1.594,0,0,1,2.177.583l15.938,27.6A1.593,1.593,0,0,1,923.953,439.63Zm-44.609-29.454a12.708,12.708,0,0,0-2.685,20l-0.03,0s0.122,0.12.349,0.32a12.694,12.694,0,0,0,1.827,1.424A30.02,30.02,0,0,0,895,437.287a30.024,30.024,0,0,0,3.449-16.7,12.678,12.678,0,0,0-.32-2.3c-0.06-.3-0.1-0.462-0.1-0.462l-0.019.024A12.706,12.706,0,0,0,879.344,410.176ZM916.2,429.385l-9.562-16.563-5.783,3.339c0.083,0.217,2.807,7.492-2.279,21.246,0,0-1.181,2.835-1.7,3.134s-3.563-.095-3.563-0.095c-14.456-2.473-19.394-8.47-19.54-8.65l-5.783,3.339,9.563,16.562,4.781,8.282,19.323-11.156,19.323-11.157Zm-27.292-2.646a6.375,6.375,0,1,1,2.334-8.708A6.374,6.374,0,0,1,888.906,426.739Zm-4.781-8.281a3.187,3.187,0,1,0,4.354,1.166A3.187,3.187,0,0,0,884.125,418.458Z" transform="translate(-864.219 -405.281)"/>
</svg>
