<svg xmlns="http://www.w3.org/2000/svg" width="184" height="184" viewBox="0 0 184 184">
  <defs>
    <style>
      .cls-1 {
        fill: #fbfbfb;
        fill-rule: evenodd;
      }
    </style>
  </defs>
  <path id="Прямоугольник_2" data-name="Прямоугольник 2" class="cls-1" d="M833.5,708.75v-11.5H868v11.5H833.5Zm-21-50.359,24.332-24.332,8.11,8.111L820.608,666.5ZM776,749a46,46,0,1,1,46-46A46,46,0,0,1,776,749Zm0-80.5A34.5,34.5,0,1,0,810.5,703,34.5,34.5,0,0,0,776,668.5ZM770.25,611h11.5v34.5h-11.5V611Zm-63.19,31.17,8.11-8.111L739.5,658.391l-8.11,8.111Zm11.44,66.58H684v-11.5h34.5v11.5Zm21,38.858L715.17,771.94l-8.11-8.111L731.392,739.5ZM781.75,795h-11.5V760.5h11.5V795Zm63.19-31.171-8.11,8.111L812.5,747.608l8.11-8.111ZM642,703H953V810H642V703Z" transform="translate(-684 -611)"/>
</svg>
